<svg width="96" height="96" viewBox="0 0 96 96" fill="none" xmlns="http://www.w3.org/2000/svg">
<path d="M27.25 52.75V27H16C12.685 27 10 29.685 10 33V86.255C10 88.93 13.23 90.265 15.12 88.375L27.5 76H62.75C66.065 76 68.75 73.315 68.75 70V58.75H33.25C29.935 58.75 27.25 56.065 27.25 52.75Z" fill="#00AC47"/>
<path d="M80 10H33.25C29.935 10 27.25 12.685 27.25 16V27H62.75C66.065 27 68.75 29.685 68.75 33V58.75H80C83.315 58.75 86 56.065 86 52.75V16C86 12.685 83.315 10 80 10Z" fill="#5BB974"/>
<path d="M62.75 27H27.25V52.75C27.25 56.065 29.935 58.75 33.25 58.75H68.75V33C68.75 29.685 66.065 27 62.75 27Z" fill="#00832D"/>
</svg>
