<svg version="1.1" xmlns="http://www.w3.org/2000/svg" xmlns:xlink="http://www.w3.org/1999/xlink" width="48" height="48"><defs><linearGradient x1="0" y1="0" x2="0" y2="0" gradientUnits="userSpaceOnUse" id="color-1"><stop offset="0.04" stop-color="#000000" stop-opacity="0.3"></stop><stop offset="1" stop-color="#000000" stop-opacity="0"></stop></linearGradient><filter id="dropshadow-base"><feColorMatrix type="matrix" values="0 0 0 0 0  0 0 0 0 0  0 0 0 0 0  0 0 0 .8 0"></feColorMatrix> <feOffset dx="0" dy="1"></feOffset> <feGaussianBlur stdDeviation="1"></feGaussianBlur> <feComposite in="SourceGraphic"></feComposite></filter><filter id="dropshadow-banner" x="-10%" y="-10%" width="120%" height="130%"><feColorMatrix type="matrix" values="0 0 0 0 0  0 0 0 0 0  0 0 0 0 0  0 0 0 .4 0"></feColorMatrix> <feOffset dx="0" dy="1"></feOffset> <feGaussianBlur stdDeviation="0.5"></feGaussianBlur> <feComposite in="SourceGraphic"></feComposite></filter></defs><g fill="none" fill-rule="none" stroke="none" stroke-width="none" stroke-linecap="butt" stroke-linejoin="miter" stroke-miterlimit="10" stroke-dasharray="" stroke-dashoffset="0" font-family="none" font-weight="none" font-size="none" text-anchor="none" style="mix-blend-mode: normal"><path d="M2,24c0,-12.15026 9.84974,-22 22,-22c12.15026,0 22,9.84974 22,22c0,12.15026 -9.84974,22 -22,22c-12.15026,0 -22,-9.84974 -22,-22z" id="base 1 5" fill="#ffffff" fill-rule="nonzero" stroke-width="1"></path><path d="" fill="url(#color-1)" fill-rule="nonzero" stroke-width="1"></path><path transform="translate(-8.47319,-8.47319) scale(1.35305,1.35305)" d="M14,30.1382v-11.59091c0,-1.68523 1.92386,-2.64773 3.27273,-1.63636l6.72727,5.04545l6.72727,-5.04545c1.34886,-1.01136 3.27273,-0.04886 3.27273,1.63636v11.59091c0,0.75341 -0.61023,1.36364 -1.36364,1.36364h-3.18182v-7.72727l-5.45455,4.09091l-5.45455,-4.09091v7.72727h-3.18182c-0.75341,0 -1.36364,-0.61023 -1.36364,-1.36364z" fill="none" fill-rule="nonzero" stroke-width="0"></path><g stroke-width="1"><path d="M12.31457,34.15036h4.30516v-10.45538l-6.15022,-4.61267v13.22298c0,1.0194 0.82567,1.84507 1.84507,1.84507z" fill="#4285f4" fill-rule="nonzero"></path><path d="M31.38027,34.15036h4.30516c1.0194,0 1.84507,-0.82567 1.84507,-1.84507v-13.22298l-6.15022,4.61267z" fill="#34a853" fill-rule="nonzero"></path><path d="M31.38027,15.69968v7.99529l6.15022,-4.61267v-2.46009c0,-2.2802 -2.60308,-3.58251 -4.42816,-2.21408z" fill="#fbbc04" fill-rule="nonzero"></path><path d="M16.61973,23.69497v-7.99529l7.38027,5.5352l7.38027,-5.5352v7.99529l-7.38027,5.5352z" fill="#ea4335" fill-rule="evenodd"></path><path d="M10.46951,16.62222v2.46009l6.15022,4.61267v-7.99529l-1.72206,-1.29155c-1.82508,-1.36842 -4.42816,-0.06611 -4.42816,2.21408z" fill="#c5221f" fill-rule="nonzero"></path></g><path d="M2,24c0,-12.15026 9.84974,-22 22,-22c12.15026,0 22,9.84974 22,22c0,12.15026 -9.84974,22 -22,22c-12.15026,0 -22,-9.84974 -22,-22z" id="base 1 1 1" fill="none" fill-rule="nonzero" stroke-width="1"></path><g fill="none" fill-rule="nonzero" stroke-width="1" font-family="Roboto, sans-serif" font-weight="400" font-size="14" text-anchor="start"></g><rect x="2" y="2" width="44" height="22" fill="none" fill-rule="nonzero" stroke-width="1"></rect><path d="M2,24v-22h44v22z" fill="none" fill-rule="nonzero" stroke-width="1"></path><path d="M2,24v-22h44v22z" fill="none" fill-rule="nonzero" stroke-width="1"></path><path d="M2,24v-22h44v22z" fill="none" fill-rule="nonzero" stroke-width="1"></path><path d="M2,24v-22h44v22z" fill="none" fill-rule="nonzero" stroke-width="1"></path></g></svg>