<?xml version="1.0" encoding="utf-8"?>
<!-- Generator: Adobe Illustrator 25.2.0, SVG Export Plug-In . SVG Version: 6.00 Build 0)  -->
<svg version="1.1" id="Layer_1" xmlns="http://www.w3.org/2000/svg" xmlns:xlink="http://www.w3.org/1999/xlink" x="0px" y="0px"
	 viewBox="0 0 1000 1000" style="enable-background:new 0 0 1000 1000;" xml:space="preserve">
<style type="text/css">
	.st0{fill:#111D43;}
	.st1{fill:#F9B934;}
</style>
<g>
	<g>
		<g>
			<path class="st0" d="M374.67,523.41h-8.15l-1.13-6.67c-3.53,4.8-8.35,7.19-14.47,7.19c-4.04,0-7.66-0.91-10.83-2.73
				c-3.18-1.82-5.66-4.45-7.45-7.89c-1.79-3.44-2.69-7.47-2.69-12.09c0-4.51,0.91-8.48,2.73-11.92s4.32-6.1,7.5-7.97
				c3.18-1.88,6.76-2.82,10.75-2.82c3.23,0,6.07,0.59,8.49,1.78c2.43,1.18,4.39,2.82,5.89,4.9v-22.45h9.36V523.41z M365.4,501.39
				c0-4.45-1.18-8.05-3.55-10.79c-2.37-2.74-5.49-4.12-9.36-4.12c-3.87,0-6.99,1.37-9.36,4.12c-2.37,2.74-3.55,6.28-3.55,10.62
				c0,4.39,1.18,7.96,3.55,10.7c2.37,2.74,5.49,4.12,9.36,4.12c3.87,0,6.99-1.36,9.36-4.07C364.21,509.25,365.4,505.73,365.4,501.39
				z"/>
			<path class="st0" d="M393.22,479.03v44.38h-9.36v-44.38H393.22z"/>
			<path class="st0" d="M445.48,521.59c0,6.24-1.85,11.08-5.55,14.52c-3.7,3.44-9.42,5.16-17.16,5.16c-6.01,0-10.89-1.34-14.65-4.03
				c-3.76-2.69-5.84-6.49-6.24-11.4h9.53c0.58,2.48,1.91,4.41,3.99,5.76c2.08,1.36,4.77,2.04,8.06,2.04
				c8.49,0,12.74-4.13,12.74-12.39v-4.94c-3.24,4.85-8.06,7.28-14.47,7.28c-4.04,0-7.66-0.91-10.83-2.73
				c-3.18-1.82-5.66-4.42-7.45-7.8c-1.79-3.38-2.69-7.38-2.69-12c0-4.45,0.91-8.38,2.73-11.79c1.82-3.41,4.32-6.05,7.5-7.93
				c3.18-1.88,6.76-2.82,10.75-2.82c3.35,0,6.24,0.66,8.67,1.99c2.43,1.33,4.39,3.15,5.89,5.46l1.04-6.93h8.15V521.59z
				 M436.21,501.22c0-4.39-1.18-7.96-3.55-10.7c-2.37-2.74-5.49-4.12-9.36-4.12c-3.87,0-6.99,1.36-9.36,4.07
				c-2.37,2.72-3.55,6.24-3.55,10.57c0,4.33,1.18,7.86,3.55,10.57c2.37,2.72,5.49,4.07,9.36,4.07c3.87,0,6.99-1.34,9.36-4.03
				C435.02,508.98,436.21,505.5,436.21,501.22z"/>
			<path class="st0" d="M464.02,479.03v44.38h-9.36v-44.38H464.02z"/>
			<path class="st0" d="M468.36,487.27v-8.23h7.71v-12.39h9.45v12.39h10.66v8.23h-10.66v23.14c0,1.73,0.35,2.96,1.04,3.68
				c0.69,0.72,1.88,1.08,3.55,1.08h7.11v8.23h-9.01c-4.22,0-7.29-0.98-9.23-2.95c-1.94-1.96-2.9-5-2.9-9.1v-24.09H468.36z"/>
			<path class="st0" d="M544.19,523.41h-4.94c-2.89,0-4.97-0.61-6.24-1.82c-1.27-1.21-1.91-2.98-1.91-5.29
				c-3.35,5.08-8.23,7.63-14.65,7.63c-4.97,0-8.96-1.16-11.96-3.47c-3.01-2.31-4.51-5.49-4.51-9.53c0-4.56,1.62-8.07,4.85-10.53
				s7.94-3.68,14.13-3.68h11.18v-2.69c0-2.48-0.87-4.43-2.6-5.85c-1.73-1.42-4.13-2.12-7.19-2.12c-2.71,0-4.95,0.59-6.72,1.78
				c-1.76,1.18-2.82,2.76-3.16,4.72h-9.19c0.46-4.45,2.43-7.9,5.89-10.36c3.47-2.46,8-3.68,13.61-3.68c5.95,0,10.54,1.39,13.78,4.16
				c3.24,2.77,4.85,6.76,4.85,11.96v17.51c0,2.08,0.98,3.12,2.95,3.12h1.82V523.41z M518.54,503.65c-2.89,0-5.11,0.56-6.67,1.69
				c-1.56,1.13-2.34,2.79-2.34,4.98c0,1.91,0.74,3.44,2.21,4.59c1.47,1.16,3.48,1.73,6.02,1.73c3.87,0,6.89-1.04,9.06-3.12
				c2.17-2.08,3.28-4.85,3.34-8.32v-1.56H518.54z"/>
			<path class="st0" d="M558.66,462.74v60.67h-9.36v-60.67H558.66z"/>
			<path class="st0" d="M571.4,472.97c0-3.52,0.81-6.11,2.43-7.76c1.62-1.65,4.25-2.47,7.89-2.47h7.37v4.07h-7.19
				c-2.2,0-3.76,0.46-4.68,1.39c-0.93,0.92-1.39,2.48-1.39,4.68v6.59H589v4.07h-13.17v39.87h-4.42v-39.87h-8.32v-4.07h8.32V472.97z"
				/>
			<path class="st0" d="M630.25,523.41h-3.9l-0.61-9.27c-1.33,3-3.29,5.39-5.89,7.15c-2.6,1.76-5.78,2.64-9.53,2.64
				c-5.08,0-9.17-1.66-12.26-4.98c-3.09-3.32-4.64-8.28-4.64-14.86v-24.61h4.42v24.35c0,5.2,1.16,9.17,3.47,11.92
				c2.31,2.74,5.55,4.12,9.71,4.12c4.56,0,8.18-1.69,10.83-5.07c2.66-3.38,3.99-7.96,3.99-13.74v-21.58h4.42V523.41z"/>
			<path class="st0" d="M635.36,483.54v-4.07h8.32v-12.31h4.42v12.31h11.7v4.07h-11.7v29.55c0,2.25,0.46,3.86,1.39,4.81
				c0.93,0.95,2.48,1.43,4.68,1.43h6.41v4.07h-6.59c-3.7,0-6.34-0.81-7.93-2.43c-1.59-1.62-2.38-4.22-2.38-7.8v-29.64H635.36z"/>
			<path class="st0" d="M702.96,523.41h-3.9l-0.61-9.27c-1.33,3-3.29,5.39-5.89,7.15c-2.6,1.76-5.78,2.64-9.53,2.64
				c-5.08,0-9.17-1.66-12.26-4.98c-3.09-3.32-4.64-8.28-4.64-14.86v-24.61h4.42v24.35c0,5.2,1.16,9.17,3.47,11.92
				c2.31,2.74,5.55,4.12,9.71,4.12c4.56,0,8.18-1.69,10.83-5.07c2.66-3.38,3.99-7.96,3.99-13.74v-21.58h4.42V523.41z"/>
			<path class="st0" d="M733.29,483.71h-2.86c-4.74,0-8.03,1.6-9.88,4.81c-1.85,3.21-2.77,7.41-2.77,12.61v22.27h-4.42v-43.94h3.81
				l0.69,8.75c1.04-2.72,2.6-4.85,4.68-6.41c2.08-1.56,5-2.34,8.75-2.34h1.99V483.71z"/>
			<path class="st0" d="M745.56,481.76c3.09-1.88,6.6-2.82,10.53-2.82c3.87,0,7.31,0.82,10.31,2.47c3.01,1.65,5.39,4.03,7.15,7.15
				c1.76,3.12,2.7,6.82,2.82,11.09c0,0.81-0.03,1.42-0.09,1.82h-35.8c-0.06,0.23-0.09,0.58-0.09,1.04c0.06,3.41,0.78,6.43,2.17,9.06
				c1.39,2.63,3.29,4.68,5.72,6.15c2.43,1.47,5.17,2.21,8.23,2.21c3.58,0,6.7-1,9.36-2.99c2.66-1.99,4.42-4.69,5.29-8.1h4.51
				c-1.04,4.51-3.25,8.15-6.63,10.92c-3.38,2.77-7.44,4.16-12.18,4.16c-4.1,0-7.76-0.95-10.96-2.86c-3.21-1.91-5.69-4.56-7.45-7.97
				c-1.76-3.41-2.64-7.31-2.64-11.7c0-4.39,0.85-8.29,2.56-11.7C740.07,486.28,742.47,483.64,745.56,481.76z M766.97,486.75
				c-2.8-2.6-6.4-3.9-10.79-3.9c-2.66,0-5.11,0.62-7.37,1.86c-2.25,1.24-4.1,2.99-5.55,5.24c-1.44,2.25-2.28,4.85-2.51,7.8h31.03
				C771.37,493.02,769.77,489.35,766.97,486.75z"/>
		</g>
		<rect x="383.86" y="462.74" class="st0" width="9.36" height="9.36"/>
		<rect x="454.66" y="462.74" class="st0" width="9.36" height="9.36"/>
	</g>
	<g>
		<rect x="288.45" y="450.52" class="st1" width="18.1" height="18.1"/>
		<g>
			<path class="st1" d="M241.72,529.92v-41.73c0-0.81,0.66-1.47,1.47-1.47h45.26v-18.09h-59.77c-2.79,0-5.05,2.26-5.05,5.05v70.75
				c0,2.79,2.26,5.05,5.05,5.05h59.77v-18.09H243.2C242.38,531.39,241.72,530.73,241.72,529.92z"/>
			<rect x="288.46" y="486.73" class="st1" width="18.09" height="44.65"/>
		</g>
	</g>
</g>
</svg>
