<svg xmlns="http://www.w3.org/2000/svg" width="360" height="360"><path fill="#174EA6" d="M65.78 234.43l-.35-2.62 24.15-52.49.87.43h.17l.13.31-.04 1.35-24.15 52.93zM140.33 179.93l.96.26 23.81-53.64-.17-1.3-.7.26-24.2 53.63zM268.63 179.63l-39.91 87.68-39.67-87.55-24.85 54.88 27.25 60.13c7.6 16.77 21.53 26.79 37.26 26.79 15.73 0 29.66-10.01 37.25-26.77l27.61-60.37-24.94-54.79z"/><path fill="#4285F4" d="M266.11 65.16c-7.56-16.73-21.4-26.72-37.04-26.72-15.65 0-29.5 9.99-37.05 26.74l-76.54 169.85-24.85-55.27-24.85 54.69 16.28 36.09c6.71 14.87 19.2 23.75 33.41 23.75s26.7-8.88 33.41-23.75l80.19-177.95 64.47 142.07 25.2-55.24-52.63-114.26z"/><path fill="#174EA6" d="M148.88 89.54c-6.71-14.87-19.2-23.75-33.41-23.75s-26.7 8.88-33.41 23.75l-40.82 89.88 24.53 55.02 49.7-109.39 24.81 54.98L165 125.26l-16.12-35.72z"/></svg>